<svg xmlns="http://www.w3.org/2000/svg" version="1.1" xmlns:xlink="http://www.w3.org/1999/xlink" xmlns:svgjs="http://svgjs.dev/svgjs" width="4542" height="2109"><svg xmlns="http://www.w3.org/2000/svg" xml:space="preserve" style="fill-rule:evenodd;clip-rule:evenodd;stroke-linejoin:round;stroke-miterlimit:2" viewBox="0 0 4542 2109"><path d="M4462.213 168.854H3112.88c-9.83 0-17.785-7.964-17.785-17.793 0-9.826-7.997-17.794-17.826-17.794h-112.5c-9.788 0-17.785-7.967-17.785-17.789V17.795c0-9.825-7.956-17.793-17.785-17.793H23.04C13.39.002 7.13 7.841 5.251 17.3c-22.17 111.57 33.03 604.075 33.03 604.075s1513.658 254.339 1513.658 635.996c0 343.188-625.038 400.711-754.632 406.134-9.526.404-16.965 8.243-16.965 17.777v409.27c0 9.83 7.968 17.786 17.794 17.786h786.408c152.785-181.85 404.254-300.7 688.815-300.7 284.603 0 536.05 118.85 688.827 300.7h817.489c9.83 0 17.826-7.956 17.826-17.785v-424.886c0-10.046-8.247-18.093-18.285-17.789-127.91 3.844-791.539-85.492-793.622-405.09-1.624-248.537 212.671-285.91 273.774-306.23 7.289-2.412 12.12-9.206 12.12-16.849v-5.668c0-8.838 6.54-16.323 15.286-17.593 1126.748-163.375 1186.934-486.175 1250.66-641.04 17.453-42.488-21.241-86.554-75.221-86.554"></path><path d="M1190.94 548.314v7.725c0 13.401 10.92 24.271 24.27 24.271h17.08c4.45 5.231 11.07 8.544 18.48 8.544h320.87c-4.75 12.554-10.91 28.768-27.53 45.724-31.93 32.583-99.45 66.696-254.46 89.173l-.01.001c-8 1.162-14.63 6.158-18.12 12.964-23.79 7.396-71.74 25.027-71.31 90.113.25 37.991 29.65 66.966 70.04 85.667 42.29 19.584 95.65 28.455 124.89 30.812v71.202h-171.53c-40.52-43.733-103.46-72.196-174.4-72.196-70.927 0-133.875 28.462-174.393 72.196H710.753v-67.853c28.041-2.499 78.925-9.845 119.004-28.841 38.211-18.112 66.248-46.733 66.248-87.617 0-15.574-6.645-30.866-19.69-45.118-15.237-16.648-40.114-32.424-70.416-46.43-89.975-41.586-229.546-69.714-275.078-78.19-2.888-26.908-8.482-83.657-7.612-112.147z" style="fill:#fff" transform="matrix(4.16512 0 0 4.16506 -2096.727 -2200.456)"></path><path d="M2691.16 2372.37v81.31c-30.08 0-57.29 2.95-81.62 8.83q-36.495 8.835-56.61 30.27c-13.4 14.29-18.92 33.95-16.55 58.98l25.71 252.69c3.66 34.25 1.56 62.68-6.29 85.3-7.86 22.62-20.91 40.3-39.14 53.06s-41.42 21.74-69.58 26.95c28.72 4.98 52.25 13.51 70.6 25.6 18.34 12.08 31.24 29.3 38.71 51.66 7.46 22.37 9.36 51.71 5.7 88.05l-25.71 252.69c-2.37 25.25 3.07 45.05 16.32 59.38 13.25 14.34 32.14 24.37 56.67 30.1s51.8 8.6 81.79 8.6v81.3c-34.48 0-67.54-2.99-99.17-8.98q-47.46-8.985-83.79-30.3c-24.23-14.22-42.49-33.73-54.79-58.54-12.29-24.81-16.39-56.19-12.29-94.15l25.11-233.87c2.96-28.02.26-51.72-8.11-71.1q-12.54-29.07-53.97-44.1c-27.62-10.03-68.98-15.04-124.1-15.04v-82.6c55.02 0 96.42-4.93 124.19-14.8 27.77-9.86 45.79-24.41 54.04-43.63q12.39-28.845 7.95-70.86l-25.11-235.02c-3.88-37.82.33-69.17 12.63-94.03s30.48-44.39 54.55-58.6c24.06-14.2 51.93-24.28 83.61-30.23 31.69-5.94 64.77-8.92 99.25-8.92M3056.78 2372.37c34.48 0 67.53 3 99.17 8.99q47.445 8.985 83.79 30.3c24.22 14.21 42.51 33.73 54.85 58.54 12.35 24.81 16.42 56.19 12.22 94.15l-25.1 234.82c-2.96 28.01.71 51.63 11.02 70.86 10.31 19.22 29.49 33.77 57.53 43.63 28.04 9.87 67.25 14.8 117.62 14.8v82.6c-50.27 0-89.46 5.01-117.55 15.04q-42.135 15.03-57.6 44.1c-10.31 19.38-13.98 43.08-11.02 71.1l25.1 234.07q5.82 56.73-12.63 94.02c-12.29 24.86-30.48 44.4-54.54 58.6-24.06 14.21-51.94 24.29-83.62 30.23-31.68 5.95-64.76 8.92-99.24 8.92v-81.3c30.08 0 57.29-2.87 81.62-8.6s43.27-15.76 56.84-30.1c13.56-14.33 19-34.13 16.31-59.38l-25.71-252.69c-3.66-36.56-1.56-65.96 6.3-88.21s21.88-39.29 42.05-51.1c20.18-11.81 47.03-20.01 80.56-24.58-32.2-5.61-58.44-14.94-78.72-27.96-20.29-13.03-34.56-30.83-42.82-53.4s-10.71-51.03-7.37-85.37l25.71-252.69c2.69-25.03-2.75-44.69-16.31-58.98-13.57-14.29-32.43-24.38-56.6-30.27-24.17-5.88-51.46-8.83-81.86-8.83z" style="fill-rule:nonzero" transform="matrix(.99963 0 0 .99961 -594.167 -2070.297)"></path></svg><style>@media (prefers-color-scheme: light) { :root { filter: none; } }
@media (prefers-color-scheme: dark) { :root { filter: none; } }
</style></svg>
